PathFileType	4	(X/Y/Z)	Walk3.trc
DataRate	CameraRate	NumFrames	NumMarkers	Units	OrigDataRate	OrigDataStartFrame	OrigNumFrames
200.000000	200.000000	7	58	mm	200.000000	255	499
Frame#	Times		LFHD		RFHD		RASI		RACR1		RUA1		RElbow		RFA1		RCAR		LACR1		LUA1		RTH3		RTH2		LLFC		LTB3		LTB2		LMT1		LMT5		LCAR		LTH3		RBHD		RWRU		RLFC		RTB2		LWRR		LASI		LTH2		C7		LElbow		RTH1		RTB4		RMT1		RBack		CLAV		LFA1		RTB3		RTB1		STRN		RToe		LTB1		RWRR		LTB4		LPSI		LTH4		LTH1		LElbowM		LWRU		RPSI		RMMAL		RLMAL		LToe		RTH4		LBHD		LCAL		RMT5		RCAL		T10		LLMAL		LMMAL
			X1	Y1	Z1	X2	Y2	Z2	X3	Y3	Z3	X4	Y4	Z4	X5	Y5	Z5	X6	Y6	Z6	X7	Y7	Z7	X8	Y8	Z8	X9	Y9	Z9	X10	Y10	Z10	X11	Y11	Z11	X12	Y12	Z12	X13	Y13	Z13	X14	Y14	Z14	X15	Y15	Z15	X16	Y16	Z16	X17	Y17	Z17	X18	Y18	Z18	X19	Y19	Z19	X20	Y20	Z20	X21	Y21	Z21	X22	Y22	Z22	X23	Y23	Z23	X24	Y24	Z24	X25	Y25	Z25	X26	Y26	Z26	X27	Y27	Z27	X28	Y28	Z28	X29	Y29	Z29	X30	Y30	Z30	X31	Y31	Z31	X32	Y32	Z32	X33	Y33	Z33	X34	Y34	Z34	X35	Y35	Z35	X36	Y36	Z36	X37	Y37	Z37	X38	Y38	Z38	X39	Y39	Z39	X40	Y40	Z40	X41	Y41	Z41	X42	Y42	Z42	X43	Y43	Z43	X44	Y44	Z44	X45	Y45	Z45	X46	Y46	Z46	X47	Y47	Z47	X48	Y48	Z48	X49	Y49	Z49	X50	Y50	Z50	X51	Y51	Z51	X52	Y52	Z52	X53	Y53	Z53	X54	Y54	Z54	X55	Y55	Z55	X56	Y56	Z56	X57	Y57	Z57	X58	Y58	Z58

255	1.275	-129.46	1587.8	-59.451	-137.34	1588.7	34.771	-160.41	976.46	138.19	-264.65	1375.5	134.17	-300.01	1193.9	226.61	-359.58	1076.5	245.56	-354.78	929.37	264.62	-267.62	781.23	296.65	-246.1	1380.3	-175.39	-236.4	1202	-273.77	-132.63	592.24	172.34	-114.52	694.07	190.26	-301.7	475.84	-137.02	-337.05	163.5	-58.16	-329.32	250.23	-114.22	-290.54	28.346	-15.396	-317.22	24.212	-96.494	-85.603	821.38	-302.18	-282.68	596.4	-170.34	-295.41	1555.5	38.725	-330.66	822.77	275.56	-103.73	515.08	151.97	-108.67	279.92	147.36	-113.62	862.18	-261.67	-144.73	959.52	-155.34	-212.15	674.6	-180.1	-329.28	1418.9	-19.841	-256.19	1075.3	-307.07	-202.36	745.67	212.03	-76.558	271.6	93.863	-36.414	48.596	79.924	-389.35	1322.7	80.22	-192.53	1338.9	-18.915	-212.3	943.03	-317.43	-96.823	189.46	96.691	-56.498	356.15	97.769	-134.85	1234.4	-7.8457	14.38	56.34	121.31	-286.36	328.46	-55.106	-266.54	833.21	245.2	-311.9	245.5	-55.658	-395.31	966.72	-63.649	-268.04	676.78	-196.37	-252.27	752.75	-232.97	-292.15	1041.5	-239.26	-156.89	838.34	-315.34	-398.76	967.82	26.268	-127	87.735	37.886	-155.87	82.121	116.42	-218.63	22.437	-42.199	-168.38	667.49	190.75	-280.51	1546.3	-100.99	-467.21	42.985	-55.233	-76.802	37.707	142.65	-214.24	47.808	68.946	-402.04	1152.6	-31.412	-399.31	65.457	-85.835	-389.97	66.279	-0.91384
256	1.28	-123.77	1587.2	-59.147	-131.67	1588	35.074	-154.7	975.89	138.19	-259.24	1375	134.26	-295.15	1193.4	226.67	-354.89	1076	245.39	-350.34	928.96	264.56	-263.44	780.79	297.17	-240.37	1379.8	-175.24	-229.66	1201.7	-273.66	-127.33	591.8	172	-108.78	693.47	190.24	-300.03	475.98	-137.03	-336.57	163.73	-58.216	-328.74	250.45	-114.24	-290.47	28.413	-15.398	-317.28	24.238	-96.397	-76.436	822.39	-301.54	-279.94	596.42	-170.32	-289.78	1555	38.982	-326.3	822.33	275.48	-98.626	514.47	151.52	-96.525	279	147.34	-104.82	863.05	-261.19	-139.6	958.86	-155.43	-208.8	673.92	-180.02	-323.75	1418.3	-19.807	-248.89	1075	-307.28	-196.29	745.38	212.44	-64.196	271.71	93.857	-16.115	50.007	80.692	-383.94	1322.2	80.168	-187.03	1338.4	-18.817	-204.06	942.97	-317.34	-81.496	188.89	96.982	-47.206	356.94	97.475	-129.29	1233.9	-7.8576	34.336	59.552	121.87	-285.25	328.48	-55.28	-261.85	832.8	245.69	-311.11	245.64	-55.746	-390.05	966.28	-63.056	-264.66	676.71	-196.52	-248.25	752.45	-233.17	-285.04	1041	-239.71	-147.84	838.67	-314.78	-393.26	967.34	26.838	-107.89	86.025	38.406	-136.71	79.554	116.91	-218.57	22.38	-42.343	-162.72	667.1	190.79	-274.84	1545.9	-100.76	-467.14	43.678	-54.887	-56.211	37.703	143.31	-193.78	43.271	69.382	-396.56	1152.1	-31.347	-399.24	65.883	-85.617	-389.71	66.71	-0.74371
257	1.285	-118.07	1586.5	-58.833	-125.98	1587.2	35.384	-148.97	975.28	138.21	-253.82	1374.4	134.36	-290.26	1192.9	226.75	-350.16	1075.6	245.23	-345.86	928.53	264.52	-259.23	780.33	297.68	-234.66	1379.3	-175.09	-222.92	1201.4	-273.53	-122.18	591.21	171.71	-103.1	692.73	190.15	-298.29	476.13	-137.01	-336.06	163.97	-58.263	-328.13	250.68	-114.25	-290.39	28.485	-15.399	-317.35	24.266	-96.292	-67.35	823.32	-300.88	-277.13	596.44	-170.29	-284.16	1554.5	39.249	-321.89	821.87	275.47	-93.687	513.71	151.11	-84.527	278.23	147.32	-96.094	863.86	-260.7	-134.42	958.19	-155.48	-205.4	673.22	-179.93	-318.24	1417.8	-19.761	-241.57	1074.7	-307.46	-190.2	745.02	212.85	-52.016	271.95	93.843	3.9025	51.76	81.4	-378.52	1321.7	80.139	-181.53	1337.8	-18.721	-195.85	942.87	-317.23	-66.359	188.55	97.267	-38.107	357.76	97.166	-123.73	1233.3	-7.8898	53.98	63.03	122.38	-284.1	328.5	-55.44	-257.17	832.34	246.17	-310.29	245.78	-55.823	-384.77	965.81	-62.446	-261.22	676.61	-196.65	-244.18	752.14	-233.34	-277.93	1040.4	-240.13	-138.86	838.96	-314.23	-387.72	966.81	27.422	-88.981	84.679	38.917	-117.7	77.352	117.4	-218.51	22.323	-42.493	-157.13	666.6	190.86	-269.18	1545.5	-100.52	-467.07	44.404	-54.523	-35.825	38.05	143.92	-173.43	39.158	69.83	-391.06	1151.5	-31.242	-399.17	66.332	-85.387	-389.43	67.158	-0.56332
258	1.29	-112.38	1585.8	-58.51	-120.3	1586.5	35.703	-143.21	974.65	138.24	-248.39	1373.8	134.46	-285.34	1192.4	226.85	-345.4	1075.1	245.1	-341.34	928.08	264.52	-254.99	779.83	298.19	-228.98	1378.8	-174.93	-216.18	1201	-273.37	-117.18	590.47	171.47	-97.481	691.84	190	-296.47	476.29	-136.96	-335.53	164.23	-58.298	-327.49	250.92	-114.24	-290.3	28.561	-15.396	-317.42	24.295	-96.181	-58.344	824.18	-300.18	-274.24	596.45	-170.24	-278.55	1553.9	39.525	-317.46	821.39	275.51	-88.893	512.83	150.74	-72.693	277.61	147.3	-87.436	864.59	-260.18	-129.19	957.5	-155.51	-201.94	672.52	-179.83	-312.74	1417.2	-19.7	-234.23	1074.4	-307.61	-184.1	744.58	213.25	-40.034	272.32	93.819	23.588	53.843	82.032	-373.09	1321.1	80.136	-176.03	1337.2	-18.623	-187.66	942.74	-317.1	-51.441	188.45	97.543	-29.197	358.61	96.844	-118.14	1232.7	-7.9387	73.276	66.761	122.82	-282.9	328.52	-55.584	-252.52	831.83	246.64	-309.43	245.92	-55.888	-379.47	965.31	-61.82	-257.72	676.5	-196.76	-240.05	751.82	-233.48	-270.82	1039.8	-240.53	-129.95	839.21	-313.68	-382.16	966.25	28.02	-70.311	83.697	39.413	-98.882	75.518	117.87	-218.44	22.263	-42.643	-151.61	666	190.96	-263.52	1545	-100.27	-466.98	45.163	-54.144	-15.69	38.736	144.46	-153.25	35.476	70.289	-385.57	1150.9	-31.099	-399.09	66.805	-85.146	-389.13	67.624	-0.37419
259	1.295	-106.68	1585.1	-58.18	-114.62	1585.7	36.03	-137.42	973.99	138.29	-242.95	1373.2	134.58	-280.4	1191.9	226.96	-340.6	1074.6	244.99	-336.79	927.61	264.54	-250.72	779.3	298.7	-223.32	1378.2	-174.76	-209.45	1200.6	-273.18	-112.32	589.59	171.29	-91.928	690.8	189.79	-294.57	476.44	-136.89	-334.98	164.5	-58.319	-326.8	251.18	-114.21	-290.21	28.643	-15.391	-317.49	24.327	-96.062	-49.42	824.96	-299.46	-271.29	596.45	-170.18	-272.94	1553.3	39.81	-312.99	820.88	275.6	-84.222	511.83	150.43	-61.038	277.14	147.28	-78.85	865.26	-259.65	-123.91	956.81	-155.52	-198.41	671.82	-179.73	-307.25	1416.6	-19.624	-226.88	1074	-307.72	-178.01	744.07	213.62	-28.268	272.82	93.784	42.891	56.236	82.572	-367.66	1320.5	80.157	-170.54	1336.6	-18.524	-179.5	942.58	-316.94	-36.776	188.58	97.804	-20.472	359.48	96.509	-112.55	1232.2	-8.0003	92.185	70.72	123.15	-281.64	328.55	-55.709	-247.89	831.29	247.1	-308.53	246.07	-55.938	-374.14	964.79	-61.179	-254.16	676.37	-196.83	-235.85	751.47	-233.59	-263.7	1039.1	-240.91	-121.11	839.41	-313.12	-376.57	965.65	28.632	-51.937	83.075	39.887	-80.31	74.049	118.33	-218.38	22.203	-42.793	-146.16	665.3	191.09	-257.86	1544.6	-100.02	-466.89	45.955	-53.754	4.1429	39.742	144.93	-133.31	32.226	70.755	-380.06	1150.3	-30.917	-399	67.302	-84.897	-388.81	68.107	-0.17812
260	1.3	-100.98	1584.4	-57.841	-108.94	1584.8	36.365	-131.61	973.3	138.35	-237.5	1372.6	134.7	-275.43	1191.3	227.09	-335.77	1074.1	244.9	-332.2	927.11	264.59	-246.42	778.74	299.19	-217.68	1377.6	-174.59	-202.73	1200.2	-272.98	-107.58	588.58	171.2	-86.439	689.63	189.51	-292.6	476.58	-136.8	-334.39	164.77	-58.326	-326.07	251.44	-114.17	-290.12	28.73	-15.383	-317.57	24.361	-95.939	-40.578	825.66	-298.71	-268.26	596.44	-170.1	-267.34	1552.7	40.105	-308.49	820.34	275.75	-79.65	510.72	150.16	-49.575	276.81	147.25	-70.34	865.85	-259.09	-118.59	956.1	-155.5	-194.81	671.13	-179.62	-301.78	1415.9	-19.533	-219.51	1073.6	-307.8	-171.92	743.49	213.98	-16.731	273.44	93.734	61.763	58.913	83.007	-362.22	1319.9	80.206	-165.04	1336	-18.42	-171.37	942.38	-316.75	-22.393	188.92	98.043	-11.927	360.38	96.159	-106.95	1231.5	-8.0704	110.67	74.876	123.38	-280.34	328.58	-55.813	-243.27	830.7	247.56	-307.58	246.23	-55.973	-368.78	964.24	-60.524	-250.52	676.21	-196.87	-231.58	751.12	-233.67	-256.59	1038.4	-241.25	-112.34	839.57	-312.58	-370.95	965.02	29.257	-33.914	82.8	40.332	-62.037	72.936	118.75	-218.31	22.142	-42.939	-140.77	664.49	191.27	-252.21	1544.1	-99.767	-466.79	46.78	-53.358	23.625	41.039	145.29	-113.66	29.405	71.221	-374.54	1149.6	-30.696	-398.91	67.822	-84.641	-388.48	68.608	0.022862
261	1.305	-95.278	1583.6	-57.496	-103.27	1583.9	36.707	-125.77	972.59	138.42	-232.03	1371.9	134.83	-270.43	1190.7	227.25	-330.89	1073.5	244.84	-327.56	926.59	264.67	-242.08	778.14	299.69	-212.07	1376.9	-174.41	-196.02	1199.7	-272.75	-102.96	587.44	171.19	-81.012	688.34	189.18	-290.54	476.73	-136.68	-333.77	165.06	-58.318	-325.28	251.72	-114.11	-290.02	28.822	-15.372	-317.64	24.398	-95.812	-31.819	826.29	-297.94	-265.15	596.43	-170	-261.75	1552	40.409	-303.97	819.78	275.95	-75.15	509.52	149.95	-38.316	276.63	147.22	-61.906	866.37	-258.51	-113.22	955.37	-155.46	-191.14	670.45	-179.5	-296.31	1415.2	-19.425	-212.13	1073.2	-307.83	-165.84	742.84	214.3	-5.4383	274.16	93.664	80.157	61.834	83.327	-356.76	1319.2	80.281	-159.55	1335.4	-18.312	-163.27	942.16	-316.55	-8.3209	189.47	98.256	-3.5591	361.28	95.792	-101.33	1230.9	-8.1444	128.69	79.187	123.48	-278.98	328.61	-55.896	-238.67	830.07	248.01	-306.59	246.38	-55.994	-363.38	963.66	-59.854	-246.8	676.03	-196.87	-227.24	750.74	-233.72	-249.47	1037.7	-241.56	-103.64	839.7	-312.03	-365.3	964.35	29.895	-16.296	82.852	40.744	-44.117	72.165	119.14	-218.24	22.08	-43.078	-135.44	663.59	191.49	-246.57	1543.6	-99.503	-466.68	47.641	-52.961	42.704	42.594	145.56	-94.382	27.001	71.681	-369.02	1148.9	-30.437	-398.8	68.368	-84.381	-388.13	69.125	0.22648
